<?xml version="1.0" encoding="utf-8"?>
<!-- Generator: Adobe Illustrator 21.0.0, SVG Export Plug-In . SVG Version: 6.00 Build 0)  -->
<svg version="1.1" id="Layer_1" xmlns="http://www.w3.org/2000/svg" xmlns:xlink="http://www.w3.org/1999/xlink" x="0px" y="0px"
	 viewBox="0 0 174 43" style="enable-background:new 0 0 174 43;" xml:space="preserve">
<style type="text/css">
	.st0{fill:#475569;}
</style>
<path class="st0" d="M17.2,18.6H9.7l-0.6,1.7c-0.2,0.5-0.3,0.9-0.4,1.4C8.6,22,8.5,22.5,8.5,23c0,1.1,0.6,1.8,1.8,1.8V26H2.9v-1.2
	c0.4,0,0.8-0.2,1.1-0.5c0.3-0.3,0.6-0.6,0.9-1.1c0.3-0.4,0.6-1.1,0.9-1.9l7.3-19.5h4.7l5.8,19.7c0.3,0.9,0.5,1.5,0.7,1.9
	c0.2,0.4,0.4,0.7,0.7,0.9c0.3,0.2,0.7,0.4,1.2,0.5V26h-9.7v-1.2c0.6-0.1,1.1-0.2,1.4-0.5c0.3-0.3,0.4-0.7,0.4-1.1
	c0-0.4,0-0.8-0.1-1.2c-0.1-0.4-0.2-1-0.4-1.7L17.2,18.6z M10.3,16.5h6.3l-2.8-9.9L10.3,16.5z M26.8,8.6h6.8v9.8c0,1.1,0,2,0.1,2.6
	c0.1,0.6,0.2,1.1,0.4,1.5c0.2,0.4,0.4,0.6,0.7,0.8c0.3,0.2,0.7,0.2,1.1,0.2c0.4,0,0.9-0.1,1.4-0.4c0.5-0.3,0.9-0.6,1.2-1.1
	c0.3-0.5,0.5-1,0.5-1.6v-6.8c0-0.9,0-1.5-0.1-1.9c0-0.4-0.1-0.8-0.2-1c-0.1-0.2-0.2-0.4-0.5-0.6c-0.2-0.2-0.6-0.3-1-0.5V8.6h6.9
	v12.3c0,0.9,0,1.5,0,2c0,0.4,0.1,0.7,0.2,1c0.1,0.2,0.3,0.5,0.5,0.6c0.2,0.2,0.6,0.3,1.2,0.4V26l-4.8,0.2h-2.1l0.2-2.5l-0.2-0.1
	c-1.1,1-2.1,1.7-2.9,2.1c-0.9,0.4-1.7,0.6-2.6,0.6c-1.2,0-2.2-0.2-3-0.7c-0.7-0.5-1.3-1.1-1.6-2c-0.3-0.9-0.5-2.1-0.5-3.5v-6.4
	c0-0.7,0-1.2,0-1.5c0-0.4,0-0.6-0.1-0.8c0-0.2-0.1-0.4-0.2-0.5c-0.1-0.2-0.1-0.3-0.3-0.4c-0.1-0.1-0.3-0.2-0.5-0.4
	c-0.2-0.1-0.4-0.2-0.8-0.3V8.6z M60.8,23.9c-1,0.9-2,1.5-2.8,1.9c-0.8,0.4-1.7,0.5-2.7,0.5c-1.7,0-3.1-0.5-3.9-1.4
	c-0.9-0.9-1.3-2.4-1.3-4.3v-9.8h-2.2V9.5c0.7-0.1,1.2-0.3,1.6-0.5c0.3-0.2,0.6-0.5,0.8-0.9c0.2-0.4,0.3-0.9,0.4-1.5
	c0.1-0.6,0.2-1.4,0.3-2.4h4.2v4.4h5v2.2h-5v7.9c0,1.3,0.1,2.3,0.2,2.9c0.1,0.6,0.3,1.1,0.6,1.4c0.3,0.3,0.7,0.4,1.1,0.4
	c0.3,0,0.6,0,0.9-0.1c0.3-0.1,0.5-0.2,0.8-0.3c0.3-0.2,0.6-0.4,0.9-0.7L60.8,23.9z M69.9,26.3c-1.7,0-3.2-0.3-4.5-0.9
	c-1.2-0.6-2.2-1.6-2.9-2.9c-0.7-1.3-1.1-3-1.1-5.1c0-1.6,0.2-2.9,0.7-4.1c0.4-1.1,1-2.1,1.8-2.8c0.8-0.7,1.7-1.3,2.8-1.7
	c1.1-0.4,2.2-0.5,3.5-0.5c2.8,0,5,0.8,6.4,2.2c1.4,1.5,2.2,3.7,2.2,6.6c0,2-0.4,3.8-1.1,5.1c-0.7,1.4-1.7,2.4-3.1,3.1
	C73.3,25.9,71.7,26.3,69.9,26.3z M66.8,17c0,2.5,0.3,4.3,0.8,5.6c0.6,1.2,1.4,1.8,2.5,1.8c0.6,0,1.1-0.2,1.5-0.5
	c0.4-0.3,0.8-0.8,1-1.4c0.3-0.6,0.4-1.3,0.5-2.1c0.1-0.8,0.2-1.8,0.2-2.8c0-2.5-0.3-4.4-0.8-5.6c-0.6-1.3-1.4-1.9-2.5-1.9
	c-0.8,0-1.4,0.3-1.9,0.8c-0.5,0.5-0.8,1.3-1.1,2.3C66.9,14.1,66.8,15.4,66.8,17z"/>
<path class="st0" d="M108.9,8c0.2-0.5,0.3-1.1,0.4-1.6c0.1-0.6,0.2-1,0.2-1.4c0-0.6-0.2-1.1-0.5-1.3c-0.3-0.3-0.7-0.5-1.3-0.5V2h7.3
	v1.2c-0.4,0.1-0.8,0.3-1.1,0.5c-0.3,0.2-0.6,0.6-0.8,1c-0.2,0.4-0.5,1.2-0.9,2.2l-6.6,19.3h-4.2l-4-16.5l-4.7,16.5h-4.4L83.1,6.4
	c-0.3-1-0.5-1.6-0.7-2c-0.2-0.4-0.4-0.7-0.7-0.8c-0.2-0.2-0.6-0.3-0.9-0.4V2h9.5v1.2c-0.6,0.1-1.1,0.2-1.4,0.5
	c-0.3,0.3-0.4,0.7-0.4,1.1c0,0.6,0.2,1.6,0.5,2.9l3,12.2l5-17.9h4l4.1,17.9L108.9,8z M123.2,1.5v4.3h-4.8V1.5H123.2z M116.5,24.8
	c0.6-0.2,1-0.4,1.2-0.6c0.2-0.2,0.4-0.6,0.4-1c0.1-0.4,0.1-1.2,0.1-2.3v-8.2c0-0.6,0-1-0.1-1.4c0-0.4-0.1-0.6-0.3-0.8
	c-0.1-0.2-0.3-0.4-0.6-0.5c-0.2-0.1-0.6-0.2-1-0.3V8.6l4.8-0.1h2.2v12.5c0,0.7,0,1.2,0,1.5c0,0.4,0.1,0.6,0.1,0.8
	c0,0.2,0.1,0.4,0.1,0.5c0.1,0.2,0.2,0.3,0.3,0.4c0.1,0.1,0.3,0.2,0.5,0.4c0.2,0.1,0.5,0.2,0.8,0.3V26h-8.6V24.8z M140.3,14.9
	l4.5,6.7c0.7,1,1.2,1.7,1.5,2.1c0.3,0.4,0.6,0.6,0.8,0.8c0.2,0.2,0.5,0.3,0.9,0.4V26h-8.6v-1.2c0.5-0.1,0.8-0.4,0.8-0.8
	c0-0.3-0.1-0.7-0.3-1.1c-0.2-0.4-0.6-1.1-1.2-2l-1.4-2c-0.3-0.5-0.5-0.8-0.7-1c-0.2-0.2-0.4-0.4-0.6-0.5c-0.2-0.1-0.4-0.2-0.8-0.2
	h-0.8v3.6c0,1.1,0,1.9,0.1,2.3c0.1,0.4,0.2,0.8,0.4,1c0.2,0.2,0.6,0.4,1.2,0.6V26h-8.6v-1.2c0.4-0.1,0.6-0.2,0.8-0.3
	c0.2-0.1,0.4-0.2,0.5-0.4c0.1-0.2,0.2-0.3,0.3-0.6c0.1-0.2,0.1-0.6,0.2-0.9c0-0.4,0-1,0-1.7V7.2c0-1,0-1.7,0-2.2
	c0-0.5,0-0.9-0.1-1.2c-0.1-0.3-0.1-0.6-0.3-0.8c-0.1-0.2-0.3-0.4-0.5-0.5c-0.2-0.1-0.6-0.2-1.1-0.3V1.1l4.9-0.2h2.2v14.8h0.6
	c0.4,0,0.7,0,1-0.1c0.2-0.1,0.5-0.2,0.7-0.4c0.3-0.2,0.6-0.5,1.2-1c0.5-0.5,0.9-0.9,1.2-1.3c0.3-0.4,0.5-0.7,0.5-1
	c0.1-0.3,0.1-0.6,0.1-0.8c0-0.8-0.5-1.3-1.5-1.4V8.6h8.8v1.1c-0.5,0.1-1,0.3-1.5,0.6c-0.6,0.4-1.4,1.1-2.7,2.2L140.3,14.9z
	 M155.8,1.5v4.3H151V1.5H155.8z M149.1,24.8c0.6-0.2,1-0.4,1.2-0.6c0.2-0.2,0.4-0.6,0.4-1c0.1-0.4,0.1-1.2,0.1-2.3v-8.2
	c0-0.6,0-1-0.1-1.4c0-0.4-0.1-0.6-0.3-0.8c-0.1-0.2-0.3-0.4-0.6-0.5c-0.2-0.1-0.6-0.2-1-0.3V8.6l4.8-0.1h2.2v12.5c0,0.7,0,1.2,0,1.5
	c0,0.4,0.1,0.6,0.1,0.8c0,0.2,0.1,0.4,0.1,0.5c0.1,0.2,0.2,0.3,0.3,0.4c0.1,0.1,0.3,0.2,0.5,0.4c0.2,0.1,0.5,0.2,0.8,0.3V26h-8.6
	V24.8z"/>
<path class="st0" d="M6.5,30.6V42H5V30.6H6.5z M10.2,30.6v1.2H1.4v-1.2H10.2z M13.1,30v12h-1.4V30H13.1z M12.8,37.5l-0.6,0
	c0-0.6,0.1-1.1,0.3-1.6c0.2-0.5,0.4-0.9,0.7-1.3c0.3-0.4,0.7-0.6,1.1-0.8c0.4-0.2,0.9-0.3,1.4-0.3c0.4,0,0.8,0.1,1.1,0.2
	c0.3,0.1,0.6,0.3,0.9,0.5c0.2,0.2,0.4,0.6,0.5,1c0.1,0.4,0.2,0.9,0.2,1.4V42h-1.5v-5.6c0-0.4-0.1-0.8-0.2-1.1
	c-0.1-0.3-0.3-0.5-0.6-0.6c-0.3-0.1-0.6-0.2-0.9-0.2c-0.4,0-0.7,0.1-1,0.2c-0.3,0.2-0.5,0.4-0.8,0.6c-0.2,0.3-0.4,0.6-0.5,0.9
	C12.8,36.7,12.8,37.1,12.8,37.5z M24,42.2c-0.6,0-1.1-0.1-1.6-0.3c-0.5-0.2-0.9-0.5-1.2-0.9c-0.3-0.4-0.6-0.8-0.8-1.3
	c-0.2-0.5-0.3-1-0.3-1.6v-0.3c0-0.7,0.1-1.3,0.3-1.8c0.2-0.5,0.5-1,0.8-1.4c0.3-0.4,0.7-0.7,1.2-0.9c0.4-0.2,0.9-0.3,1.4-0.3
	c0.6,0,1.1,0.1,1.6,0.3c0.4,0.2,0.8,0.5,1.1,0.9c0.3,0.4,0.5,0.8,0.6,1.3c0.1,0.5,0.2,1,0.2,1.6v0.6h-6.3V37h4.9v-0.1
	c0-0.4-0.1-0.7-0.2-1.1c-0.1-0.4-0.3-0.6-0.6-0.9c-0.3-0.2-0.7-0.3-1.2-0.3c-0.3,0-0.6,0.1-0.9,0.2c-0.3,0.1-0.5,0.3-0.7,0.6
	c-0.2,0.3-0.4,0.6-0.5,1c-0.1,0.4-0.2,0.8-0.2,1.4v0.3c0,0.4,0.1,0.8,0.2,1.1c0.1,0.3,0.3,0.7,0.5,0.9c0.2,0.3,0.5,0.5,0.8,0.6
	c0.3,0.2,0.7,0.2,1.1,0.2c0.5,0,0.9-0.1,1.3-0.3c0.4-0.2,0.7-0.5,0.9-0.8l0.9,0.7c-0.2,0.3-0.4,0.5-0.7,0.8c-0.3,0.3-0.6,0.5-1,0.6
	C25,42.1,24.5,42.2,24,42.2z M36.1,38.6l2.3-7.9h1.1l-0.6,3.1L36.4,42h-1.1L36.1,38.6z M33.8,30.6l1.8,7.8l0.5,3.6H35l-2.8-11.4
	H33.8z M42.4,38.4l1.8-7.8h1.5L42.9,42h-1.1L42.4,38.4z M39.6,30.6l2.2,7.9l0.8,3.4h-1.1l-2.3-8.3l-0.6-3.1H39.6z M46.5,37.9v-0.2
	c0-0.6,0.1-1.2,0.3-1.7c0.2-0.5,0.4-1,0.8-1.4c0.3-0.4,0.7-0.7,1.2-0.9c0.5-0.2,1-0.3,1.6-0.3c0.6,0,1.1,0.1,1.6,0.3
	c0.5,0.2,0.9,0.5,1.2,0.9c0.3,0.4,0.6,0.8,0.8,1.4c0.2,0.5,0.3,1.1,0.3,1.7v0.2c0,0.6-0.1,1.2-0.3,1.7c-0.2,0.5-0.4,1-0.8,1.4
	c-0.3,0.4-0.7,0.7-1.2,0.9c-0.5,0.2-1,0.3-1.6,0.3c-0.6,0-1.1-0.1-1.6-0.3c-0.5-0.2-0.9-0.5-1.2-0.9c-0.3-0.4-0.6-0.8-0.8-1.4
	C46.6,39,46.5,38.5,46.5,37.9z M47.9,37.7v0.2c0,0.4,0,0.8,0.1,1.2c0.1,0.4,0.2,0.7,0.4,1c0.2,0.3,0.5,0.5,0.8,0.7
	c0.3,0.2,0.7,0.2,1.1,0.2c0.4,0,0.7-0.1,1-0.2c0.3-0.2,0.6-0.4,0.8-0.7c0.2-0.3,0.3-0.6,0.4-1c0.1-0.4,0.2-0.8,0.2-1.2v-0.2
	c0-0.4-0.1-0.8-0.2-1.2c-0.1-0.4-0.3-0.7-0.5-1c-0.2-0.3-0.4-0.5-0.8-0.7c-0.3-0.2-0.6-0.3-1-0.3c-0.4,0-0.7,0.1-1,0.3
	c-0.3,0.2-0.5,0.4-0.8,0.7c-0.2,0.3-0.3,0.6-0.4,1C48,36.9,47.9,37.3,47.9,37.7z M57.4,34.9V42H56v-8.5h1.4L57.4,34.9z M60.1,33.5
	l0,1.3c-0.1,0-0.2,0-0.3,0c-0.1,0-0.2,0-0.4,0c-0.3,0-0.6,0.1-0.9,0.2c-0.3,0.1-0.5,0.3-0.6,0.4c-0.2,0.2-0.3,0.4-0.4,0.7
	c-0.1,0.3-0.2,0.5-0.2,0.8l-0.4,0.2c0-0.5,0-1,0.1-1.4c0.1-0.4,0.3-0.8,0.5-1.2c0.2-0.3,0.5-0.6,0.8-0.8c0.3-0.2,0.7-0.3,1.2-0.3
	c0.1,0,0.2,0,0.4,0C59.9,33.5,60,33.5,60.1,33.5z M63,30v12h-1.5V30H63z M70.6,40.4V30h1.5v12h-1.3L70.6,40.4z M64.9,37.9v-0.2
	c0-0.6,0.1-1.2,0.2-1.8c0.2-0.5,0.4-1,0.7-1.4c0.3-0.4,0.6-0.7,1.1-0.9c0.4-0.2,0.9-0.3,1.4-0.3c0.5,0,1,0.1,1.4,0.3
	c0.4,0.2,0.7,0.5,1,0.8c0.3,0.3,0.5,0.8,0.7,1.3c0.2,0.5,0.3,1.1,0.3,1.7v0.7c-0.1,0.6-0.2,1.2-0.3,1.7c-0.2,0.5-0.4,0.9-0.7,1.3
	c-0.3,0.3-0.6,0.6-1,0.8c-0.4,0.2-0.9,0.3-1.4,0.3c-0.5,0-0.9-0.1-1.4-0.3c-0.4-0.2-0.8-0.5-1.1-0.9c-0.3-0.4-0.5-0.8-0.7-1.4
	C65,39.1,64.9,38.5,64.9,37.9z M66.4,37.7v0.2c0,0.4,0,0.8,0.1,1.2c0.1,0.4,0.2,0.7,0.4,1c0.2,0.3,0.4,0.5,0.7,0.7
	c0.3,0.2,0.6,0.2,1,0.2c0.5,0,0.9-0.1,1.2-0.3c0.3-0.2,0.6-0.5,0.8-0.8c0.2-0.3,0.3-0.7,0.4-1.1v-1.9c-0.1-0.3-0.2-0.6-0.3-0.8
	c-0.1-0.3-0.3-0.5-0.5-0.7c-0.2-0.2-0.4-0.4-0.7-0.5c-0.3-0.1-0.6-0.2-0.9-0.2c-0.4,0-0.7,0.1-1,0.3c-0.3,0.2-0.5,0.4-0.7,0.7
	c-0.2,0.3-0.3,0.6-0.4,1C66.4,36.9,66.4,37.3,66.4,37.7z M85.4,38.4h1.5c-0.1,0.7-0.3,1.4-0.6,1.9c-0.3,0.6-0.8,1-1.4,1.4
	c-0.6,0.3-1.4,0.5-2.3,0.5c-0.7,0-1.3-0.1-1.8-0.4c-0.5-0.3-1-0.6-1.4-1.1c-0.4-0.5-0.7-1-0.9-1.7c-0.2-0.7-0.3-1.4-0.3-2.2v-1.1
	c0-0.8,0.1-1.5,0.3-2.2c0.2-0.7,0.5-1.2,0.9-1.7c0.4-0.5,0.9-0.8,1.4-1.1s1.2-0.4,1.9-0.4c0.9,0,1.6,0.2,2.2,0.5
	c0.6,0.3,1.1,0.8,1.4,1.3c0.3,0.6,0.5,1.2,0.6,2h-1.5c-0.1-0.5-0.2-1-0.4-1.4c-0.2-0.4-0.5-0.7-0.8-0.9c-0.4-0.2-0.8-0.3-1.4-0.3
	c-0.5,0-1,0.1-1.3,0.3c-0.4,0.2-0.7,0.5-1,0.8c-0.3,0.4-0.4,0.8-0.6,1.3c-0.1,0.5-0.2,1-0.2,1.6v1.1c0,0.6,0.1,1.1,0.2,1.6
	c0.1,0.5,0.3,0.9,0.5,1.3c0.2,0.4,0.5,0.7,0.9,0.9c0.4,0.2,0.8,0.3,1.3,0.3c0.6,0,1.2-0.1,1.5-0.3c0.4-0.2,0.7-0.5,0.9-0.9
	C85.2,39.4,85.3,38.9,85.4,38.4z M93.7,40.6v-4.4c0-0.3-0.1-0.6-0.2-0.9c-0.1-0.3-0.3-0.4-0.6-0.6c-0.3-0.1-0.6-0.2-1-0.2
	c-0.4,0-0.7,0.1-1,0.2c-0.3,0.1-0.5,0.3-0.6,0.5c-0.2,0.2-0.2,0.4-0.2,0.7h-1.4c0-0.3,0.1-0.6,0.2-0.9c0.2-0.3,0.4-0.6,0.7-0.8
	c0.3-0.2,0.7-0.4,1.1-0.6c0.4-0.1,0.9-0.2,1.4-0.2c0.6,0,1.2,0.1,1.6,0.3c0.5,0.2,0.8,0.5,1.1,0.9c0.3,0.4,0.4,0.9,0.4,1.6v3.9
	c0,0.3,0,0.6,0.1,0.9c0.1,0.3,0.1,0.6,0.2,0.8V42h-1.5c-0.1-0.2-0.1-0.4-0.2-0.7C93.7,41.1,93.7,40.8,93.7,40.6z M94,36.9l0,1h-1.5
	c-0.4,0-0.8,0-1.1,0.1c-0.3,0.1-0.6,0.2-0.8,0.3c-0.2,0.1-0.4,0.3-0.5,0.5c-0.1,0.2-0.2,0.4-0.2,0.7c0,0.3,0.1,0.5,0.2,0.7
	c0.1,0.2,0.3,0.4,0.5,0.5c0.2,0.1,0.5,0.2,0.9,0.2c0.4,0,0.8-0.1,1.2-0.3c0.3-0.2,0.6-0.4,0.8-0.7c0.2-0.3,0.3-0.5,0.3-0.8l0.6,0.7
	c0,0.2-0.1,0.5-0.3,0.7c-0.2,0.3-0.4,0.5-0.6,0.8c-0.3,0.2-0.6,0.4-1,0.6c-0.4,0.2-0.8,0.2-1.2,0.2c-0.6,0-1.1-0.1-1.5-0.3
	c-0.4-0.2-0.8-0.5-1-0.9c-0.2-0.4-0.4-0.8-0.4-1.3c0-0.5,0.1-0.9,0.3-1.2c0.2-0.3,0.4-0.6,0.8-0.9c0.3-0.2,0.7-0.4,1.2-0.5
	c0.5-0.1,1-0.2,1.6-0.2H94z M98.9,34.9V42h-1.4v-8.5h1.4L98.9,34.9z M101.5,33.5l0,1.3c-0.1,0-0.2,0-0.3,0c-0.1,0-0.2,0-0.4,0
	c-0.3,0-0.6,0.1-0.9,0.2c-0.3,0.1-0.5,0.3-0.6,0.4c-0.2,0.2-0.3,0.4-0.4,0.7c-0.1,0.3-0.2,0.5-0.2,0.8l-0.4,0.2c0-0.5,0-1,0.1-1.4
	c0.1-0.4,0.3-0.8,0.5-1.2c0.2-0.3,0.5-0.6,0.8-0.8c0.3-0.2,0.7-0.3,1.2-0.3c0.1,0,0.2,0,0.4,0C101.4,33.5,101.5,33.5,101.5,33.5z
	 M110.1,42h-2.4l0-1.2h2.4c0.8,0,1.5-0.2,2-0.5c0.5-0.3,0.9-0.8,1.2-1.4c0.3-0.6,0.4-1.3,0.4-2.2V36c0-0.7-0.1-1.2-0.2-1.7
	c-0.2-0.5-0.4-0.9-0.7-1.3c-0.3-0.4-0.7-0.6-1.1-0.8c-0.4-0.2-0.9-0.3-1.5-0.3h-2.6v-1.2h2.6c0.7,0,1.4,0.1,2,0.4
	c0.6,0.2,1.1,0.6,1.6,1.1c0.4,0.5,0.8,1,1,1.7c0.2,0.7,0.4,1.4,0.4,2.2v0.7c0,0.8-0.1,1.6-0.4,2.2c-0.2,0.7-0.6,1.2-1,1.7
	c-0.4,0.5-1,0.8-1.6,1.1C111.6,41.9,110.9,42,110.1,42z M108.5,30.6V42H107V30.6H108.5z M122.3,40.6v-4.4c0-0.3-0.1-0.6-0.2-0.9
	c-0.1-0.3-0.3-0.4-0.6-0.6c-0.3-0.1-0.6-0.2-1-0.2c-0.4,0-0.7,0.1-1,0.2c-0.3,0.1-0.5,0.3-0.6,0.5c-0.2,0.2-0.2,0.4-0.2,0.7h-1.4
	c0-0.3,0.1-0.6,0.2-0.9c0.2-0.3,0.4-0.6,0.7-0.8c0.3-0.2,0.7-0.4,1.1-0.6c0.4-0.1,0.9-0.2,1.4-0.2c0.6,0,1.2,0.1,1.6,0.3
	c0.5,0.2,0.8,0.5,1.1,0.9c0.3,0.4,0.4,0.9,0.4,1.6v3.9c0,0.3,0,0.6,0.1,0.9c0.1,0.3,0.1,0.6,0.2,0.8V42h-1.5
	c-0.1-0.2-0.1-0.4-0.2-0.7C122.3,41.1,122.3,40.8,122.3,40.6z M122.6,36.9l0,1h-1.5c-0.4,0-0.8,0-1.1,0.1c-0.3,0.1-0.6,0.2-0.8,0.3
	c-0.2,0.1-0.4,0.3-0.5,0.5c-0.1,0.2-0.2,0.4-0.2,0.7c0,0.3,0.1,0.5,0.2,0.7c0.1,0.2,0.3,0.4,0.5,0.5c0.2,0.1,0.5,0.2,0.9,0.2
	c0.4,0,0.8-0.1,1.2-0.3c0.3-0.2,0.6-0.4,0.8-0.7c0.2-0.3,0.3-0.5,0.3-0.8l0.6,0.7c0,0.2-0.1,0.5-0.3,0.7c-0.2,0.3-0.4,0.5-0.6,0.8
	c-0.3,0.2-0.6,0.4-1,0.6c-0.4,0.2-0.8,0.2-1.2,0.2c-0.6,0-1.1-0.1-1.5-0.3c-0.4-0.2-0.8-0.5-1-0.9c-0.2-0.4-0.4-0.8-0.4-1.3
	c0-0.5,0.1-0.9,0.3-1.2c0.2-0.3,0.4-0.6,0.8-0.9c0.3-0.2,0.7-0.4,1.2-0.5c0.5-0.1,1-0.2,1.6-0.2H122.6z M129.6,33.5v1.1H125v-1.1
	H129.6z M126.5,31.5h1.4v8.4c0,0.3,0,0.5,0.1,0.6c0.1,0.1,0.2,0.2,0.3,0.3c0.1,0,0.3,0.1,0.5,0.1c0.1,0,0.2,0,0.4,0
	c0.1,0,0.2,0,0.3-0.1l0,1.2c-0.1,0-0.3,0.1-0.5,0.1c-0.2,0-0.4,0.1-0.7,0.1c-0.4,0-0.7-0.1-1-0.2c-0.3-0.1-0.5-0.4-0.7-0.7
	c-0.2-0.3-0.3-0.8-0.3-1.3V31.5z M136.2,40.6v-4.4c0-0.3-0.1-0.6-0.2-0.9c-0.1-0.3-0.3-0.4-0.6-0.6c-0.3-0.1-0.6-0.2-1-0.2
	c-0.4,0-0.7,0.1-1,0.2c-0.3,0.1-0.5,0.3-0.6,0.5c-0.2,0.2-0.2,0.4-0.2,0.7h-1.4c0-0.3,0.1-0.6,0.2-0.9c0.2-0.3,0.4-0.6,0.7-0.8
	c0.3-0.2,0.7-0.4,1.1-0.6c0.4-0.1,0.9-0.2,1.4-0.2c0.6,0,1.2,0.1,1.6,0.3c0.5,0.2,0.8,0.5,1.1,0.9c0.3,0.4,0.4,0.9,0.4,1.6v3.9
	c0,0.3,0,0.6,0.1,0.9c0.1,0.3,0.1,0.6,0.2,0.8V42h-1.5c-0.1-0.2-0.1-0.4-0.2-0.7C136.3,41.1,136.2,40.8,136.2,40.6z M136.5,36.9l0,1
	H135c-0.4,0-0.8,0-1.1,0.1c-0.3,0.1-0.6,0.2-0.8,0.3c-0.2,0.1-0.4,0.3-0.5,0.5c-0.1,0.2-0.2,0.4-0.2,0.7c0,0.3,0.1,0.5,0.2,0.7
	c0.1,0.2,0.3,0.4,0.5,0.5c0.2,0.1,0.5,0.2,0.9,0.2c0.4,0,0.8-0.1,1.2-0.3s0.6-0.4,0.8-0.7c0.2-0.3,0.3-0.5,0.3-0.8l0.6,0.7
	c0,0.2-0.1,0.5-0.3,0.7c-0.2,0.3-0.4,0.5-0.6,0.8c-0.3,0.2-0.6,0.4-1,0.6c-0.4,0.2-0.8,0.2-1.2,0.2c-0.6,0-1.1-0.1-1.5-0.3
	c-0.4-0.2-0.8-0.5-1-0.9c-0.2-0.4-0.4-0.8-0.4-1.3c0-0.5,0.1-0.9,0.3-1.2c0.2-0.3,0.4-0.6,0.8-0.9c0.3-0.2,0.7-0.4,1.2-0.5
	c0.5-0.1,1-0.2,1.6-0.2H136.5z M140,30h1.5v10.4l-0.1,1.6H140V30z M147.1,37.7v0.2c0,0.6-0.1,1.2-0.2,1.7c-0.1,0.5-0.4,1-0.6,1.4
	c-0.3,0.4-0.6,0.7-1,0.9c-0.4,0.2-0.9,0.3-1.4,0.3c-0.5,0-1-0.1-1.4-0.3c-0.4-0.2-0.7-0.5-1-0.8c-0.3-0.3-0.5-0.8-0.7-1.3
	c-0.2-0.5-0.3-1.1-0.3-1.7v-0.7c0.1-0.6,0.2-1.2,0.3-1.7c0.2-0.5,0.4-0.9,0.7-1.3c0.3-0.4,0.6-0.6,1-0.8c0.4-0.2,0.9-0.3,1.4-0.3
	c0.5,0,1,0.1,1.4,0.3c0.4,0.2,0.8,0.5,1,0.9c0.3,0.4,0.5,0.8,0.6,1.4C147,36.5,147.1,37.1,147.1,37.7z M145.7,37.9v-0.2
	c0-0.4,0-0.8-0.1-1.2c-0.1-0.4-0.2-0.7-0.4-1c-0.2-0.3-0.4-0.5-0.7-0.7c-0.3-0.2-0.6-0.3-1-0.3c-0.4,0-0.7,0.1-1,0.2
	c-0.3,0.1-0.5,0.3-0.7,0.5c-0.2,0.2-0.3,0.4-0.5,0.7c-0.1,0.3-0.2,0.5-0.3,0.8v1.9c0.1,0.4,0.2,0.7,0.4,1.1c0.2,0.3,0.4,0.6,0.8,0.8
	c0.3,0.2,0.7,0.3,1.2,0.3c0.4,0,0.7-0.1,1-0.2c0.3-0.2,0.5-0.4,0.7-0.7c0.2-0.3,0.3-0.6,0.4-1C145.6,38.7,145.7,38.3,145.7,37.9z
	 M153.9,40.6v-4.4c0-0.3-0.1-0.6-0.2-0.9c-0.1-0.3-0.3-0.4-0.6-0.6c-0.3-0.1-0.6-0.2-1-0.2c-0.4,0-0.7,0.1-1,0.2
	c-0.3,0.1-0.5,0.3-0.6,0.5c-0.2,0.2-0.2,0.4-0.2,0.7h-1.4c0-0.3,0.1-0.6,0.2-0.9c0.2-0.3,0.4-0.6,0.7-0.8c0.3-0.2,0.7-0.4,1.1-0.6
	c0.4-0.1,0.9-0.2,1.4-0.2c0.6,0,1.2,0.1,1.6,0.3c0.5,0.2,0.8,0.5,1.1,0.9c0.3,0.4,0.4,0.9,0.4,1.6v3.9c0,0.3,0,0.6,0.1,0.9
	c0.1,0.3,0.1,0.6,0.2,0.8V42h-1.5c-0.1-0.2-0.1-0.4-0.2-0.7C154,41.1,153.9,40.8,153.9,40.6z M154.2,36.9l0,1h-1.5
	c-0.4,0-0.8,0-1.1,0.1c-0.3,0.1-0.6,0.2-0.8,0.3c-0.2,0.1-0.4,0.3-0.5,0.5c-0.1,0.2-0.2,0.4-0.2,0.7c0,0.3,0.1,0.5,0.2,0.7
	c0.1,0.2,0.3,0.4,0.5,0.5c0.2,0.1,0.5,0.2,0.9,0.2c0.4,0,0.8-0.1,1.2-0.3c0.3-0.2,0.6-0.4,0.8-0.7c0.2-0.3,0.3-0.5,0.3-0.8l0.6,0.7
	c0,0.2-0.1,0.5-0.3,0.7c-0.2,0.3-0.4,0.5-0.6,0.8c-0.3,0.2-0.6,0.4-1,0.6c-0.4,0.2-0.8,0.2-1.2,0.2c-0.6,0-1.1-0.1-1.5-0.3
	c-0.4-0.2-0.8-0.5-1-0.9c-0.2-0.4-0.4-0.8-0.4-1.3c0-0.5,0.1-0.9,0.3-1.2c0.2-0.3,0.4-0.6,0.8-0.9c0.3-0.2,0.7-0.4,1.2-0.5
	c0.5-0.1,1-0.2,1.6-0.2H154.2z M162.6,39.8c0-0.2,0-0.4-0.1-0.6c-0.1-0.2-0.3-0.3-0.6-0.5c-0.3-0.2-0.7-0.3-1.3-0.4
	c-0.5-0.1-0.9-0.2-1.3-0.4c-0.4-0.1-0.7-0.3-1-0.5c-0.3-0.2-0.5-0.4-0.6-0.7c-0.1-0.3-0.2-0.6-0.2-0.9c0-0.3,0.1-0.6,0.2-0.9
	c0.2-0.3,0.4-0.6,0.6-0.8c0.3-0.2,0.6-0.4,1-0.5c0.4-0.1,0.8-0.2,1.3-0.2c0.7,0,1.3,0.1,1.7,0.4c0.5,0.2,0.8,0.6,1.1,1
	c0.3,0.4,0.4,0.8,0.4,1.3h-1.4c0-0.2-0.1-0.5-0.2-0.7c-0.1-0.2-0.3-0.4-0.6-0.6c-0.3-0.1-0.6-0.2-1-0.2c-0.4,0-0.7,0.1-1,0.2
	c-0.2,0.1-0.4,0.3-0.5,0.5c-0.1,0.2-0.2,0.4-0.2,0.6c0,0.2,0,0.3,0.1,0.4c0.1,0.1,0.2,0.2,0.3,0.3c0.1,0.1,0.3,0.2,0.6,0.3
	c0.3,0.1,0.6,0.2,1,0.3c0.7,0.2,1.3,0.3,1.7,0.6c0.4,0.2,0.8,0.5,1,0.8c0.2,0.3,0.3,0.7,0.3,1.2c0,0.4-0.1,0.7-0.2,1
	c-0.2,0.3-0.4,0.6-0.7,0.8c-0.3,0.2-0.6,0.4-1,0.5c-0.4,0.1-0.8,0.2-1.3,0.2c-0.7,0-1.4-0.1-1.9-0.4c-0.5-0.3-0.9-0.6-1.2-1
	c-0.3-0.4-0.4-0.9-0.4-1.3h1.5c0,0.4,0.1,0.7,0.3,0.9c0.2,0.2,0.5,0.4,0.8,0.5c0.3,0.1,0.6,0.1,0.9,0.1c0.4,0,0.7-0.1,1-0.2
	c0.3-0.1,0.5-0.2,0.6-0.4C162.5,40.2,162.6,40,162.6,39.8z M169.4,42.2c-0.6,0-1.1-0.1-1.6-0.3c-0.5-0.2-0.9-0.5-1.2-0.9
	c-0.3-0.4-0.6-0.8-0.8-1.3c-0.2-0.5-0.3-1-0.3-1.6v-0.3c0-0.7,0.1-1.3,0.3-1.8c0.2-0.5,0.5-1,0.8-1.4s0.7-0.7,1.2-0.9
	c0.4-0.2,0.9-0.3,1.4-0.3c0.6,0,1.1,0.1,1.6,0.3c0.4,0.2,0.8,0.5,1.1,0.9c0.3,0.4,0.5,0.8,0.6,1.3c0.1,0.5,0.2,1,0.2,1.6v0.6h-6.3
	V37h4.9v-0.1c0-0.4-0.1-0.7-0.2-1.1c-0.1-0.4-0.3-0.6-0.6-0.9c-0.3-0.2-0.7-0.3-1.2-0.3c-0.3,0-0.6,0.1-0.9,0.2
	c-0.3,0.1-0.5,0.3-0.7,0.6c-0.2,0.3-0.4,0.6-0.5,1c-0.1,0.4-0.2,0.8-0.2,1.4v0.3c0,0.4,0.1,0.8,0.2,1.1c0.1,0.3,0.3,0.7,0.5,0.9
	c0.2,0.3,0.5,0.5,0.8,0.6c0.3,0.2,0.7,0.2,1.1,0.2c0.5,0,0.9-0.1,1.3-0.3c0.4-0.2,0.7-0.5,0.9-0.8l0.9,0.7c-0.2,0.3-0.4,0.5-0.7,0.8
	c-0.3,0.3-0.6,0.5-1,0.6C170.5,42.1,170,42.2,169.4,42.2z"/>
</svg>
